<svg width="18" height="18" viewBox="0 0 18 18" xmlns="http://www.w3.org/2000/svg">
<path d="M9.00156 5.25489C7.01517 5.25489 5.41294 6.78429 5.41294 8.6804C5.41294 10.5765 7.01517 12.1059 9.00156 12.1059C10.988 12.1059 12.5902 10.5765 12.5902 8.6804C12.5902 6.78429 10.988 5.25489 9.00156 5.25489ZM9.00156 10.9074C7.7179 10.9074 6.66849 9.90869 6.66849 8.6804C6.66849 7.4521 7.71478 6.45337 9.00156 6.45337C10.2883 6.45337 11.3346 7.4521 11.3346 8.6804C11.3346 9.90869 10.2852 10.9074 9.00156 10.9074ZM13.574 5.11477C13.574 5.55898 13.1992 5.91376 12.737 5.91376C12.2716 5.91376 11.8999 5.556 11.8999 5.11477C11.8999 4.67354 12.2747 4.31578 12.737 4.31578C13.1992 4.31578 13.574 4.67354 13.574 5.11477ZM15.9508 5.92568C15.8977 4.8554 15.6416 3.90734 14.8202 3.12625C14.0019 2.34515 13.0087 2.10068 11.8875 2.04702C10.7318 1.98441 7.26815 1.98441 6.11255 2.04702C4.99442 2.0977 4.00123 2.34216 3.17981 3.12326C2.35839 3.90436 2.10541 4.85241 2.04919 5.9227C1.9836 7.02578 1.9836 10.332 2.04919 11.4351C2.10229 12.5054 2.35839 13.4535 3.17981 14.2345C4.00123 15.0156 4.9913 15.2601 6.11255 15.3138C7.26815 15.3764 10.7318 15.3764 11.8875 15.3138C13.0087 15.2631 14.0019 15.0186 14.8202 14.2345C15.6385 13.4535 15.8946 12.5054 15.9508 11.4351C16.0164 10.332 16.0164 7.02876 15.9508 5.92568ZM14.4579 12.6187C14.2143 13.203 13.7427 13.6532 13.1274 13.8887C12.206 14.2375 10.0197 14.157 9.00156 14.157C7.98338 14.157 5.79398 14.2345 4.87574 13.8887C4.26358 13.6562 3.79197 13.206 3.54523 12.6187C3.17981 11.7392 3.26414 9.6523 3.26414 8.6804C3.26414 7.7085 3.18293 5.61861 3.54523 4.74211C3.78885 4.15777 4.26046 3.7076 4.87574 3.47208C5.7971 3.12326 7.98338 3.20376 9.00156 3.20376C10.0197 3.20376 12.2091 3.12625 13.1274 3.47208C13.7395 3.70462 14.2112 4.15479 14.4579 4.74211C14.8233 5.62159 14.739 7.7085 14.739 8.6804C14.739 9.6523 14.8233 11.7422 14.4579 12.6187Z"/>
</svg>
