<svg width="18" height="18" viewBox="0 0 18 18" xmlns="http://www.w3.org/2000/svg">
<path d="M3.65847 5.47237C3.67583 5.28608 3.60926 5.09978 3.48191 4.97349L2.17656 3.25582V3.00006H6.23444L9.37192 10.5054L12.1302 3.00006H16V3.25582L14.8828 4.42408C14.7873 4.50302 14.7381 4.63564 14.7583 4.76509V13.3534C14.7381 13.4829 14.7873 13.6155 14.8828 13.6944L15.974 14.8627V15.1185H10.4834V14.8627L11.6151 13.666C11.725 13.546 11.725 13.5082 11.725 13.325V6.38488L8.57887 15.0964H8.1534L4.49494 6.38488V12.2231C4.4631 12.4693 4.53835 12.7156 4.69754 12.8924L6.16787 14.8374V15.0932H2V14.8406L3.47033 12.8924C3.62663 12.7156 3.69899 12.4662 3.65847 12.2231V5.47237Z"/>
</svg>
