<svg width="18" height="18" viewBox="0 0 18 18" xmlns="http://www.w3.org/2000/svg">
<path d="M14.5609 6.09131C14.5698 6.22697 14.5698 6.36267 14.5698 6.49833C14.5698 10.6363 11.6828 15.4042 6.40611 15.4042C4.78046 15.4042 3.27031 14.8906 2 13.9991C2.23097 14.0281 2.45303 14.0378 2.69289 14.0378C4.03425 14.0378 5.26904 13.5436 6.25509 12.7005C4.99366 12.6714 3.93655 11.7702 3.57233 10.5297C3.75001 10.5588 3.92766 10.5782 4.11423 10.5782C4.37183 10.5782 4.62947 10.5394 4.8693 10.4716C3.55458 10.1808 2.56851 8.92104 2.56851 7.39958V7.36083C2.95047 7.59341 3.39467 7.73877 3.86545 7.75813C3.09261 7.19605 2.58628 6.23667 2.58628 5.15128C2.58628 4.56984 2.72839 4.03685 2.97713 3.57168C4.38958 5.47109 6.51269 6.71149 8.89339 6.84719C8.84898 6.61461 8.82232 6.37236 8.82232 6.13008C8.82232 4.4051 10.1015 2.99994 11.6916 2.99994C12.5178 2.99994 13.2639 3.37788 13.7881 3.9884C14.4365 3.85274 15.0584 3.59107 15.6091 3.23252C15.3959 3.95935 14.9429 4.56987 14.3477 4.95748C14.9251 4.88968 15.4848 4.7152 16 4.47296C15.6092 5.09315 15.1206 5.6455 14.5609 6.09131Z"/>
</svg>
