<svg width="18" height="18" viewBox="0 0 18 18" xmlns="http://www.w3.org/2000/svg">
<path d="M15.7075 4.89032C15.5464 4.14627 15.072 3.56028 14.4697 3.36142C13.3779 3.00006 9 3.00006 9 3.00006C9 3.00006 4.6221 3.00006 3.53029 3.36142C2.92795 3.56031 2.45356 4.14627 2.29254 4.89032C2 6.23895 2 9.05273 2 9.05273C2 9.05273 2 11.8665 2.29254 13.2151C2.45356 13.9592 2.92795 14.5208 3.53029 14.7196C4.6221 15.081 9 15.081 9 15.081C9 15.081 13.3779 15.081 14.4697 14.7196C15.072 14.5208 15.5464 13.9592 15.7075 13.2151C16 11.8665 16 9.05273 16 9.05273C16 9.05273 16 6.23895 15.7075 4.89032ZM7.56817 11.6074V6.49803L11.2272 9.0528L7.56817 11.6074Z"/>
</svg>
