<svg width="24" height="24" viewBox="0 0 24 24" xmlns="http://www.w3.org/2000/svg">
<path d="M19.7836 3.92837C19.6477 3.76814 19.4784 3.63945 19.2877 3.55126C19.097 3.46307 18.8894 3.41749 18.6792 3.4177H17.2819V2.98106C17.2816 2.72101 17.1782 2.47168 16.9943 2.28777C16.8105 2.10385 16.5612 2.00036 16.3011 2H6.8249C6.5648 2.00027 6.31542 2.10372 6.13149 2.28765C5.94757 2.47157 5.84412 2.72095 5.84384 2.98106V3.41804H4.44646C4.23637 3.41779 4.02874 3.46331 3.83803 3.55145C3.64731 3.63958 3.47808 3.7682 3.34212 3.92837C3.20747 4.08621 3.10877 4.27145 3.05288 4.47125C2.99698 4.67104 2.98523 4.88061 3.01843 5.0854C3.20511 6.20703 3.64472 7.27143 4.30395 8.19788C4.96317 9.12434 5.82469 9.88853 6.82318 10.4325C7.00172 10.8646 7.2107 11.2835 7.44853 11.6859C8.19095 12.9349 9.11347 13.7982 10.1293 14.2156C10.1781 14.7265 10.0393 15.2377 9.7389 15.6538C9.43851 16.07 8.99701 16.3627 8.49674 16.4773L8.49088 16.479C8.3898 16.5032 8.29981 16.5607 8.23541 16.6423C8.171 16.7239 8.13594 16.8248 8.13585 16.9287V19.0523H7.2767C6.90854 19.0528 6.5556 19.1993 6.29531 19.4596C6.03502 19.72 5.88863 20.073 5.88826 20.4411V21.5372C5.88826 21.6599 5.93703 21.7777 6.02382 21.8644C6.11061 21.9512 6.22833 22 6.35108 22H16.8194C16.9421 22 17.0599 21.9512 17.1467 21.8644C17.2334 21.7777 17.2822 21.6599 17.2822 21.5372V20.4411C17.2818 20.0729 17.1354 19.7199 16.875 19.4595C16.6147 19.1991 16.2616 19.0527 15.8934 19.0523H15.0346V16.9291C15.0346 16.8249 14.9994 16.7239 14.9348 16.6422C14.8702 16.5605 14.7799 16.503 14.6786 16.479H14.6727C14.1689 16.3641 13.7247 16.0685 13.4242 15.6481C13.1237 15.2278 12.9876 14.7119 13.0418 14.198C14.1645 13.662 15.0877 12.7828 15.6779 11.6877C15.9157 11.2851 16.1247 10.8661 16.3032 10.4339C17.3016 9.88994 18.163 9.12584 18.8221 8.19951C19.4813 7.27318 19.9209 6.20894 20.1076 5.08747C20.1411 4.88232 20.1295 4.67234 20.0735 4.47215C20.0176 4.27197 19.9186 4.0864 19.7836 3.92837ZM3.93234 4.93733C3.92029 4.86491 3.92439 4.79072 3.94433 4.72006C3.96427 4.6494 3.99957 4.58402 4.0477 4.52858C4.09684 4.47069 4.158 4.42419 4.22692 4.39232C4.29584 4.36045 4.37087 4.34396 4.44681 4.34401H5.84453V5.19559C5.83966 6.48237 6.00559 7.76411 6.33799 9.00723C5.05775 7.99708 4.20002 6.54598 3.93234 4.93733ZM15.8938 19.9783C16.0165 19.9785 16.1341 20.0273 16.2208 20.1141C16.3076 20.2008 16.3564 20.3184 16.3566 20.4411V21.074H6.81389V20.4411C6.81407 20.3184 6.86289 20.2008 6.94964 20.1141C7.0364 20.0273 7.15401 19.9785 7.2767 19.9783H15.8938ZM14.109 17.3926V19.0523H9.06148V17.3926H14.109ZM10.2753 16.4663C10.3908 16.339 10.4954 16.2023 10.588 16.0575C10.8928 15.5831 11.0583 15.0326 11.0656 14.4687C11.4104 14.5165 11.7603 14.5144 12.1045 14.4625C12.1166 15.2048 12.3992 15.9172 12.8993 16.4659H10.2753V16.4663ZM16.3562 5.19559C16.3562 7.47589 15.8325 9.61329 14.8817 11.2132C13.9757 12.7376 12.797 13.5775 11.5632 13.5775C10.3294 13.5775 9.15032 12.7379 8.24433 11.2135C7.29322 9.61295 6.76981 7.47521 6.76981 5.19559V2.98106C6.76981 2.96645 6.77561 2.95243 6.78595 2.9421C6.79628 2.93177 6.81029 2.92596 6.8249 2.92596H16.3011C16.3158 2.92596 16.3298 2.93176 16.3402 2.94208C16.3506 2.9524 16.3565 2.96642 16.3566 2.98106L16.3562 5.19559ZM19.1937 4.93733C18.9261 6.54586 18.0687 7.99692 16.7887 9.00723C17.1211 7.76411 17.287 6.48237 17.2822 5.19559V4.34366H18.6796C18.7555 4.34362 18.8306 4.3601 18.8995 4.39198C18.9684 4.42385 19.0296 4.47035 19.0787 4.52824C19.1268 4.58377 19.162 4.64922 19.1819 4.71994C19.2018 4.79065 19.2058 4.86488 19.1937 4.93733Z"/>
</svg>
