<svg width="53" height="53" viewBox="0 0 53 53" fill="none" xmlns="http://www.w3.org/2000/svg">
<g filter="url(#filter0_d)">
<circle cx="26.5" cy="22.5" r="22.5" fill="#C1E5EF"/>
<path d="M41.5105 21.4222C39.4808 20.6933 38.2324 18.6277 38.3893 16.9967C38.3893 16.7285 38.2286 16.4794 38.0255 16.3033C37.8223 16.1282 37.5073 16.0524 37.2436 16.0948C34.1506 16.5486 31.3185 14.2858 31.0379 11.1051C31.0126 10.818 30.8555 10.5598 30.6118 10.4054C30.3689 10.2519 30.0665 10.2185 29.7984 10.3187C27.2913 11.2368 24.9224 9.57676 23.9772 7.41366C23.8002 7.00918 23.3615 6.7862 22.929 6.88191C15.8124 8.46994 10.585 15.3437 10.585 22.6374C10.585 31.3032 17.6965 38.4147 26.3623 38.4147C35.0282 38.4147 42.1397 31.3032 42.1397 22.6374C42.114 22.0867 42.1102 21.637 41.5105 21.4222ZM17.0716 23.6314C16.561 23.6314 16.1471 23.2175 16.1471 22.7069C16.1471 22.1963 16.561 21.7825 17.0716 21.7825C17.5821 21.7825 17.996 22.1963 17.996 22.7069C17.996 23.2175 17.582 23.6314 17.0716 23.6314ZM20.8156 30.9575C19.2863 30.9575 18.0422 29.7134 18.0422 28.1841C18.0422 26.6548 19.2863 25.4107 20.8156 25.4107C22.3449 25.4107 23.589 26.6548 23.589 28.1841C23.589 29.7134 22.345 30.9575 20.8156 30.9575ZM21.7401 19.864C20.7208 19.864 19.8912 19.0343 19.8912 18.0151C19.8912 16.9958 20.7208 16.1662 21.7401 16.1662C22.7593 16.1662 23.589 16.9958 23.589 18.0151C23.589 19.0343 22.7593 19.864 21.7401 19.864ZM29.1357 32.8064C28.1165 32.8064 27.2868 31.9767 27.2868 30.9575C27.2868 29.9382 28.1165 29.1085 29.1357 29.1085C30.155 29.1085 30.9846 29.9382 30.9846 30.9575C30.9846 31.9767 30.155 32.8064 29.1357 32.8064ZM30.0602 25.4107C28.5309 25.4107 27.2868 24.1666 27.2868 22.6374C27.2868 21.1081 28.5309 19.864 30.0602 19.864C31.5895 19.864 32.8335 21.1081 32.8335 22.6374C32.8335 24.1666 31.5895 25.4107 30.0602 25.4107ZM35.5607 27.3292C35.0501 27.3292 34.6362 26.9153 34.6362 26.4048C34.6362 25.8941 35.0501 25.4803 35.5607 25.4803C36.0712 25.4803 36.4851 25.8941 36.4851 26.4048C36.4851 26.9153 36.0712 27.3292 35.5607 27.3292Z" fill="#0295C0"/>
</g>
<defs>
<filter id="filter0_d" x="0" y="0" width="53" height="53" filterUnits="userSpaceOnUse" color-interpolation-filters="sRGB">
<feFlood flood-opacity="0" result="BackgroundImageFix"/>
<feColorMatrix in="SourceAlpha" type="matrix" values="0 0 0 0 0 0 0 0 0 0 0 0 0 0 0 0 0 0 127 0"/>
<feOffset dy="4"/>
<feGaussianBlur stdDeviation="2"/>
<feColorMatrix type="matrix" values="0 0 0 0 0 0 0 0 0 0 0 0 0 0 0 0 0 0 0.25 0"/>
<feBlend mode="normal" in2="BackgroundImageFix" result="effect1_dropShadow"/>
<feBlend mode="normal" in="SourceGraphic" in2="effect1_dropShadow" result="shape"/>
</filter>
</defs>
</svg>
